<svg width="122" height="59" viewBox="0 0 122 59" fill="none" xmlns="http://www.w3.org/2000/svg">
<path d="M20.4289 33.9378H27.2471L30.1449 37.6367L33.946 42.0003L39.7926 49.2105H32.1562L28.0653 44.3185L25.6449 40.8412L20.4289 33.9378ZM40.0312 29.0287C40.0312 32.8696 39.2926 36.1253 37.8153 38.7958C36.338 41.4662 34.338 43.4946 31.8153 44.881C29.3039 46.2674 26.4858 46.9605 23.3608 46.9605C20.2244 46.9605 17.4005 46.2617 14.8892 44.864C12.3778 43.4662 10.3835 41.4378 8.90622 38.7787C7.44031 36.1083 6.70735 32.8583 6.70735 29.0287C6.70735 25.1878 7.44031 21.9321 8.90622 19.2617C10.3835 16.5912 12.3778 14.5628 14.8892 13.1765C17.4005 11.7901 20.2244 11.0969 23.3608 11.0969C26.4858 11.0969 29.3039 11.7901 31.8153 13.1765C34.338 14.5628 36.338 16.5912 37.8153 19.2617C39.2926 21.9321 40.0312 25.1878 40.0312 29.0287ZM31.4062 29.0287C31.4062 26.756 31.0824 24.8355 30.4346 23.2674C29.7983 21.6992 28.8778 20.5117 27.6733 19.7049C26.4801 18.898 25.0426 18.4946 23.3608 18.4946C21.6903 18.4946 20.2528 18.898 19.0483 19.7049C17.8437 20.5117 16.9176 21.6992 16.2699 23.2674C15.6335 24.8355 15.3153 26.756 15.3153 29.0287C15.3153 31.3015 15.6335 33.2219 16.2699 34.7901C16.9176 36.3583 17.8437 37.5458 19.0483 38.3526C20.2528 39.1594 21.6903 39.5628 23.3608 39.5628C25.0426 39.5628 26.4801 39.1594 27.6733 38.3526C28.8778 37.5458 29.7983 36.3583 30.4346 34.7901C31.0824 33.2219 31.4062 31.3015 31.4062 29.0287Z" fill="#3B2CE9" fill-opacity="0.23"/>
<path d="M12.8391 33.0742H17.9528L20.1261 35.8483L22.9769 39.1211L27.3619 44.5287H21.6346L18.5664 40.8597L16.7511 38.2517L12.8391 33.0742ZM27.5408 29.3924C27.5408 32.273 26.9869 34.7148 25.8789 36.7177C24.771 38.7205 23.271 40.2418 21.3789 41.2816C19.4954 42.3213 17.3817 42.8412 15.038 42.8412C12.6857 42.8412 10.5678 42.3171 8.6843 41.2688C6.80078 40.2205 5.30504 38.6992 4.19709 36.7049C3.09766 34.702 2.54794 32.2645 2.54794 29.3924C2.54794 26.5117 3.09766 24.0699 4.19709 22.0671C5.30504 20.0642 6.80078 18.5429 8.6843 17.5032C10.5678 16.4634 12.6857 15.9435 15.038 15.9435C17.3817 15.9435 19.4954 16.4634 21.3789 17.5032C23.271 18.5429 24.771 20.0642 25.8789 22.0671C26.9869 24.0699 27.5408 26.5117 27.5408 29.3924ZM21.0721 29.3924C21.0721 27.6878 20.8292 26.2475 20.3434 25.0713C19.8661 23.8952 19.1758 23.0046 18.2724 22.3995C17.3775 21.7944 16.2994 21.4918 15.038 21.4918C13.7852 21.4918 12.707 21.7944 11.8036 22.3995C10.9002 23.0046 10.2056 23.8952 9.71982 25.0713C9.24254 26.2475 9.00391 27.6878 9.00391 29.3924C9.00391 31.0969 9.24254 32.5373 9.71982 33.7134C10.2056 34.8895 10.9002 35.7802 11.8036 36.3853C12.707 36.9904 13.7852 37.2929 15.038 37.2929C16.2994 37.2929 17.3775 36.9904 18.2724 36.3853C19.1758 35.7802 19.8661 34.8895 20.3434 33.7134C20.8292 32.5373 21.0721 31.0969 21.0721 29.3924Z" fill="#7D2CE9"/>
<path d="M37.8047 31.8384V25.5742H40.8303V36.4833H37.9254V34.5017H37.8118C37.5656 35.1409 37.156 35.6547 36.5831 36.0429C36.0149 36.4312 35.3213 36.6253 34.5021 36.6253C33.773 36.6253 33.1314 36.4596 32.5774 36.1282C32.0234 35.7967 31.5902 35.3256 31.2777 34.7148C30.9699 34.104 30.8137 33.3725 30.8089 32.5202V25.5742H33.8345V31.9804C33.8393 32.6244 34.0121 33.1334 34.353 33.5074C34.6939 33.8815 35.1508 34.0685 35.7237 34.0685C36.0883 34.0685 36.4292 33.9856 36.7464 33.8199C37.0637 33.6495 37.3194 33.3985 37.5135 33.0671C37.7124 32.7356 37.8094 32.3261 37.8047 31.8384ZM43.2504 36.4833V25.5742H46.2759V36.4833H43.2504ZM44.7702 24.1679C44.3204 24.1679 43.9345 24.0188 43.6126 23.7205C43.2953 23.4175 43.1367 23.0552 43.1367 22.6338C43.1367 22.2172 43.2953 21.8597 43.6126 21.5614C43.9345 21.2584 44.3204 21.1069 44.7702 21.1069C45.2201 21.1069 45.6036 21.2584 45.9208 21.5614C46.2428 21.8597 46.4038 22.2172 46.4038 22.6338C46.4038 23.0552 46.2428 23.4175 45.9208 23.7205C45.6036 24.0188 45.2201 24.1679 44.7702 24.1679ZM53.6286 36.6963C52.5111 36.6963 51.55 36.4596 50.745 35.9861C49.9448 35.5079 49.3293 34.845 48.8984 33.9975C48.4723 33.1499 48.2592 32.1746 48.2592 31.0713C48.2592 29.9539 48.4747 28.9738 48.9055 28.131C49.3411 27.2835 49.959 26.623 50.7592 26.1495C51.5594 25.6712 52.5111 25.4321 53.6143 25.4321C54.5661 25.4321 55.3994 25.605 56.1143 25.9506C56.8293 26.2962 57.3951 26.7816 57.8118 27.4066C58.2285 28.0316 58.4581 28.7655 58.5007 29.6083H55.6456C55.5651 29.0638 55.352 28.6258 55.0064 28.2944C54.6655 27.9582 54.218 27.7901 53.6641 27.7901C53.1953 27.7901 52.7857 27.9179 52.4354 28.1736C52.0897 28.4246 51.8198 28.7915 51.6257 29.2745C51.4316 29.7574 51.3345 30.3422 51.3345 31.0287C51.3345 31.7248 51.4292 32.3166 51.6186 32.8043C51.8127 33.292 52.085 33.6637 52.4354 33.9194C52.7857 34.175 53.1953 34.3029 53.6641 34.3029C54.0097 34.3029 54.3198 34.2319 54.5945 34.0898C54.8738 33.9478 55.1035 33.7418 55.2834 33.4719C55.468 33.1973 55.5888 32.8682 55.6456 32.4847H58.5007C58.4534 33.318 58.2261 34.0519 57.8189 34.6864C57.4164 35.3161 56.8601 35.8086 56.1499 36.1637C55.4396 36.5188 54.5992 36.6963 53.6286 36.6963ZM63.1793 33.3441L63.1864 29.7148H63.6268L67.1211 25.5742H70.5941L65.8995 31.0571H65.1822L63.1793 33.3441ZM60.4379 36.4833V21.9378H63.4634V36.4833H60.4379ZM67.256 36.4833L64.0458 31.7319L66.0629 29.5941L70.8001 36.4833H67.256ZM70.4485 24.4733V21.9378H82.3945V24.4733H77.9414V36.4833H74.9016V24.4733H70.4485ZM85.9315 36.6892C85.2354 36.6892 84.6152 36.5685 84.0707 36.327C83.5262 36.0808 83.0953 35.7186 82.7781 35.2404C82.4656 34.7574 82.3093 34.1561 82.3093 33.4364C82.3093 32.8303 82.4206 32.3213 82.6431 31.9094C82.8656 31.4975 83.1687 31.166 83.5522 30.9151C83.9357 30.6641 84.3713 30.4748 84.859 30.3469C85.3514 30.2191 85.8675 30.1291 86.4073 30.077C87.0418 30.0107 87.5531 29.9492 87.9414 29.8924C88.3297 29.8308 88.6114 29.7409 88.7866 29.6225C88.9618 29.5041 89.0494 29.3289 89.0494 29.0969V29.0543C89.0494 28.6045 88.9073 28.2565 88.6232 28.0103C88.3439 27.7641 87.9461 27.6409 87.43 27.6409C86.8855 27.6409 86.4523 27.7617 86.1303 28.0032C85.8084 28.2399 85.5953 28.5382 85.4911 28.898L82.6928 28.6708C82.8349 28.0079 83.1142 27.435 83.5309 26.952C83.9476 26.4643 84.485 26.0903 85.1431 25.8299C85.806 25.5647 86.573 25.4321 87.4442 25.4321C88.0503 25.4321 88.6303 25.5032 89.1843 25.6452C89.743 25.7873 90.2378 26.0074 90.6687 26.3057C91.1043 26.604 91.4476 26.9875 91.6985 27.4563C91.9495 27.9203 92.0749 28.4766 92.0749 29.1253V36.4833H89.2056V34.9705H89.1204C88.9452 35.3114 88.7108 35.6121 88.4173 35.8725C88.1237 36.1282 87.771 36.3294 87.359 36.4762C86.9471 36.6182 86.4712 36.6892 85.9315 36.6892ZM86.7979 34.6012C87.243 34.6012 87.636 34.5136 87.9769 34.3384C88.3178 34.1585 88.5853 33.917 88.7795 33.614C88.9736 33.3109 89.0707 32.9677 89.0707 32.5841V31.4265C88.976 31.488 88.8458 31.5448 88.68 31.5969C88.5191 31.6443 88.3368 31.6892 88.1332 31.7319C87.9296 31.7697 87.726 31.8052 87.5224 31.8384C87.3188 31.8668 87.1341 31.8928 86.9684 31.9165C86.6133 31.9686 86.3031 32.0515 86.038 32.1651C85.7728 32.2787 85.5669 32.4326 85.4201 32.6267C85.2733 32.8161 85.1999 33.0529 85.1999 33.337C85.1999 33.7489 85.3491 34.0638 85.6474 34.2816C85.9504 34.4946 86.3339 34.6012 86.7979 34.6012ZM97.4478 21.9378V36.4833H94.4222V21.9378H97.4478ZM102.613 33.3441L102.62 29.7148H103.06L106.555 25.5742H110.028L105.333 31.0571H104.616L102.613 33.3441ZM99.8714 36.4833V21.9378H102.897V36.4833H99.8714ZM106.69 36.4833L103.479 31.7319L105.496 29.5941L110.234 36.4833H106.69ZM120.589 28.685L117.819 28.8554C117.772 28.6187 117.67 28.4056 117.513 28.2162C117.357 28.0221 117.151 27.8682 116.896 27.7546C116.645 27.6362 116.344 27.577 115.994 27.577C115.525 27.577 115.129 27.6765 114.808 27.8753C114.486 28.0695 114.325 28.3299 114.325 28.6566C114.325 28.917 114.429 29.1372 114.637 29.3171C114.845 29.497 115.203 29.6414 115.71 29.7503L117.684 30.148C118.745 30.3659 119.535 30.7162 120.056 31.1992C120.577 31.6821 120.837 32.3166 120.837 33.1026C120.837 33.8176 120.627 34.4449 120.205 34.9847C119.789 35.5245 119.216 35.9459 118.487 36.2489C117.762 36.5472 116.926 36.6963 115.979 36.6963C114.535 36.6963 113.385 36.3957 112.528 35.7944C111.675 35.1883 111.176 34.3644 111.029 33.3228L114.005 33.1665C114.095 33.6069 114.313 33.943 114.658 34.175C115.004 34.4023 115.447 34.5159 115.987 34.5159C116.517 34.5159 116.943 34.4141 117.265 34.2105C117.592 34.0022 117.757 33.7347 117.762 33.408C117.757 33.1334 117.641 32.9085 117.414 32.7333C117.187 32.5534 116.836 32.416 116.363 32.3213L114.474 31.9449C113.408 31.7319 112.615 31.3625 112.094 30.837C111.578 30.3114 111.32 29.6414 111.32 28.827C111.32 28.1263 111.51 27.5226 111.888 27.0159C112.272 26.5093 112.809 26.1187 113.501 25.8441C114.197 25.5695 115.011 25.4321 115.944 25.4321C117.322 25.4321 118.406 25.7233 119.197 26.3057C119.992 26.8881 120.456 27.6812 120.589 28.685Z" fill="#7D2CE9"/>
</svg>
